<?xml version="1.0" encoding="UTF-8" standalone="no"?>
<svg
   xmlns:dc="http://purl.org/dc/elements/1.1/"
   xmlns:cc="http://creativecommons.org/ns#"
   xmlns:rdf="http://www.w3.org/1999/02/22-rdf-syntax-ns#"
   xmlns:svg="http://www.w3.org/2000/svg"
   xmlns="http://www.w3.org/2000/svg"
   xmlns:sodipodi="http://sodipodi.sourceforge.net/DTD/sodipodi-0.dtd"
   xmlns:inkscape="http://www.inkscape.org/namespaces/inkscape"
   viewBox="0 0 399.0235 239.45874"
   height="239.45874"
   width="399.0235"
   xml:space="preserve"
   version="1.1"
   id="svg2"
   inkscape:version="0.48.5 r10040"
   sodipodi:docname="Fuji Electric Logo EPS.svg"><sodipodi:namedview
     pagecolor="#ffffff"
     bordercolor="#666666"
     borderopacity="1"
     objecttolerance="10"
     gridtolerance="10"
     guidetolerance="10"
     inkscape:pageopacity="0"
     inkscape:pageshadow="2"
     inkscape:window-width="1440"
     inkscape:window-height="848"
     id="namedview22"
     showgrid="false"
     fit-margin-top="5"
     fit-margin-bottom="5"
     fit-margin-right="5"
     fit-margin-left="5"
     inkscape:zoom="1"
     inkscape:cx="131.66666"
     inkscape:cy="207.92086"
     inkscape:window-x="-8"
     inkscape:window-y="-8"
     inkscape:window-maximized="1"
     inkscape:current-layer="g12" /><metadata
     id="metadata8"><rdf:RDF><cc:Work
         rdf:about=""><dc:format>image/svg+xml</dc:format><dc:type
           rdf:resource="http://purl.org/dc/dcmitype/StillImage" /><dc:title></dc:title></cc:Work></rdf:RDF></metadata><defs
     id="defs6" /><g
     transform="matrix(2.9789029,0,0,-2.9789029,5,123.57051)"
     id="g10"><g
       transform="scale(0.1,0.1)"
       id="g12"><path
         id="path14"
         style="fill:#0b419b;fill-opacity:1;fill-rule:nonzero;stroke:none"
         d="m 338.76114,160.0509 0.0155,0 c 3.67304,16.99311 19.41213,30.14676 36.99549,30.14676 l 0,0.0522 264.23218,0 c -18.72515,-28.9759 -34.24363,-59.94513 -46.15875,-92.209021 l -268.59415,0 13.50973,62.010061 M 1194.2244,327.49142 C 1123.6646,386.69735 1030.5537,409.75349 932.14612,392.4043 843.73781,376.81615 762.58074,329.98591 699.31473,264.8021 l 24.36434,114.9788 c 0,0 -396.79434,0 -461.1402,0 -1.03534,0.0368 -2.10939,-0.0774 -3.17569,-0.0774 -58.97758,0 -111.62159,-44.19835 -123.51271,-101.37038 -0.0151,-0.0542 -0.0453,-0.0755 -0.0679,-0.12966 C 116.46814,188.27019 0,-359.77407 0,-359.77407 l 228.06884,0 60.21805,281.739466 280.02353,0 c 7.00741,-90.622196 45.52203,-169.277806 110.42718,-223.683066 70.5908,-59.19029 163.67072,-82.24657 262.07828,-64.89767 74.19612,13.07781 145.64812,48.53157 206.63052,102.52849 59.4846,52.68175 105.1363,119.3551 132.0706,192.817754 l 1.8753,5.103159 -53.0597,0 -0.9754,-2.366766 C 1174.9013,-197.43537 1059.0013,-295.17877 932.14612,-317.51695 l 0,0 c -83.63027,-14.74071 -162.22511,4.43745 -221.33235,53.99712 -60.55091,50.77672 -93.86562,127.37656 -93.86562,215.701657 0,184.207213 145.27651,359.638233 323.86773,391.108683 83.66122,14.74052 162.24832,-4.44519 221.33232,-53.99634 55.0414,-46.15099 87.5994,-113.65706 93.0413,-191.911304 l -535.08671,0 -11.29197,-53.166133 545.91808,0 0,-0.07547 50.0291,0 0.2187,3.613045 c 0.6425,12.042836 0.9521,20.486175 0.9521,25.854459 0,103.336553 -39.6564,193.498173 -111.7044,253.882653"
         inkscape:connector-curvature="0" /></g></g></svg>