<?xml version="1.0" encoding="utf-8"?>
<!-- Generator: Adobe Illustrator 14.0.0, SVG Export Plug-In . SVG Version: 6.00 Build 43363)  -->
<!DOCTYPE svg PUBLIC "-//W3C//DTD SVG 1.1//EN" "http://www.w3.org/Graphics/SVG/1.1/DTD/svg11.dtd">
<svg version="1.1" id="Ebene_1" xmlns="http://www.w3.org/2000/svg" xmlns:xlink="http://www.w3.org/1999/xlink" x="0px" y="0px"
	 width="1024px" height="574px" viewBox="0 0 1024 574" enable-background="new 0 0 1024 574" xml:space="preserve">
<path fill="#A7A9AB" d="M0.247,138.581v435.537H103.45V217.224h70.833c0,0,87.018-8.072,105.238,86.695
	c0,0,8.1,102.839-95.117,114.933h-64.754v78.644h84.996c0,0,178.079-12.102,178.079-187.519c0,0-4.043-171.396-178.079-171.396
	H0.247"/>
<rect x="404.987" y="138.581" fill="#A7A9AB" width="97.139" height="352.864"/>
<path fill="#A7A9AB" d="M392.859,57.923c0-32.288,26.265-58.457,58.663-58.457c32.426,0,58.677,26.168,58.677,58.457
	s-26.251,58.463-58.677,58.463C419.124,116.386,392.859,90.211,392.859,57.923"/>
<rect x="534.511" y="25.663" fill="#A7A9AB" width="99.16" height="465.782"/>
<polyline fill="#A7A9AB" points="661.998,138.581 1024.247,138.581 1024.247,211.167 797.586,416.837 1024.247,416.837 
	1024.247,491.444 664.033,491.444 664.033,422.895 883.6,216.207 661.998,216.207 661.998,138.581 "/>
</svg>
